PathFileType	4	(X/Y/Z)	Walk7.trc
DataRate	CameraRate	NumFrames	NumMarkers	Units	OrigDataRate	OrigDataStartFrame	OrigNumFrames
200.000000	200.000000	4	59	mm	200.000000	496	533
Frame#	Times		LBHD		C7		T10		RBack		LPSI		RPSI		RCAR		LElbowM		LLFC		LFHD		LUA1		RElbowM		RUA1		RWRR		CLAV		LCAR		RFA1		LFA1		LWRU		RTH2		RTH3		RTB1		LACR1		RACR1		LWRR		RTB3		RToe		RMT1		RLFC		RTH4		RCAL		RMT5		RTB4		LTB3		RWRU		LTH1		RFHD		RBHD		RTB2		RTH1		LTH4		LTH3		LElbow		STRN		RMMAL		RElbow		LTH2		RASI		LTB2		RLMAL		LASI		LCAL		LMT1		LLMAL		LMT5		LMMAL		LToe		LTB1		LTB4
			X1	Y1	Z1	X2	Y2	Z2	X3	Y3	Z3	X4	Y4	Z4	X5	Y5	Z5	X6	Y6	Z6	X7	Y7	Z7	X8	Y8	Z8	X9	Y9	Z9	X10	Y10	Z10	X11	Y11	Z11	X12	Y12	Z12	X13	Y13	Z13	X14	Y14	Z14	X15	Y15	Z15	X16	Y16	Z16	X17	Y17	Z17	X18	Y18	Z18	X19	Y19	Z19	X20	Y20	Z20	X21	Y21	Z21	X22	Y22	Z22	X23	Y23	Z23	X24	Y24	Z24	X25	Y25	Z25	X26	Y26	Z26	X27	Y27	Z27	X28	Y28	Z28	X29	Y29	Z29	X30	Y30	Z30	X31	Y31	Z31	X32	Y32	Z32	X33	Y33	Z33	X34	Y34	Z34	X35	Y35	Z35	X36	Y36	Z36	X37	Y37	Z37	X38	Y38	Z38	X39	Y39	Z39	X40	Y40	Z40	X41	Y41	Z41	X42	Y42	Z42	X43	Y43	Z43	X44	Y44	Z44	X45	Y45	Z45	X46	Y46	Z46	X47	Y47	Z47	X48	Y48	Z48	X49	Y49	Z49	X50	Y50	Z50	X51	Y51	Z51	X52	Y52	Z52	X53	Y53	Z53	X54	Y54	Z54	X55	Y55	Z55	X56	Y56	Z56	X57	Y57	Z57	X58	Y58	Z58	X59	Y59	Z59

496	2.48	713.38	1489.1	-103.24	697.03	1358	-35.771	678.18	1089.9	-35.566	674.37	1259.7	94.988	657.86	905.06	-67.563	650.52	906.92	32.3	886.41	771.72	276.55	735.51	968.54	-231.3	779.63	451.65	-138.55	884.01	1512.7	-79.219	794.4	1121.6	-279.39	726.07	969.64	170.09	778.27	1154	207.09	905.22	814.85	231.25	826.78	1286.4	-26.598	897.82	731.84	-336.88	790.82	886.93	256.93	801.53	884.48	-324.23	843.34	767.89	-341.02	910.38	679.8	157.24	866.08	562.35	162.52	903.56	339.62	79.776	784.27	1294.7	-195.86	769.88	1305.6	120.94	893.85	771.06	-287.53	819.68	175.64	71.555	881.42	41.722	109.6	841.4	72.476	79.923	907.31	472.28	156.46	839.76	653.34	178.99	687.05	107.87	61.252	804.08	64.014	121.3	854.95	262.43	76.521	787.45	159.2	-38.78	836.91	786.85	242	821.88	741.37	-201.58	886.57	1522.4	-1.7901	709.39	1496.6	19.973	819.81	275.85	138.99	817.23	738.61	196.89	820.79	651.53	-173.15	814.47	559.75	-149.35	765.15	1003.1	-296.68	893.46	1183.6	-25.56	769.57	117.22	30.138	763.88	1011.8	248.69	880.91	663.77	-132.75	940.41	873.7	126.36	764.56	247.15	-115.62	743.07	116.65	105.55	856.09	858.29	-172.58	690.62	28.497	-35.905	844.46	45.21	-25.655	735.19	61.468	-77.419	821.25	28.062	-81.163	753.73	68.239	0.64991	901.42	20.844	-32.829	806.19	340.12	-55.739	788.54	250.67	-49.01
497	2.485	719.4	1488.9	-103.22	702.79	1357.7	-35.772	683.44	1089.7	-35.707	679.92	1259.4	94.923	662.89	904.74	-67.391	655.72	906.47	32.432	889.58	770.84	277.46	741.83	967.99	-231.69	782.14	451.42	-138.54	890.09	1512.1	-79.074	800.51	1121.3	-279.54	730.53	969.42	169.74	783.45	1153.5	207.07	908.86	813.89	232.27	832.36	1285.8	-26.577	905.45	731.96	-336.63	794.53	886.36	257.09	808.46	884.18	-324.36	850.86	767.79	-340.97	917.3	680.5	156.3	874.12	562.63	161.86	914.55	339.93	79.173	790	1294.3	-195.84	775.5	1305.1	120.94	901.19	771.18	-287.32	834.84	173.79	71.813	900.34	41.791	109.96	859.34	71.359	80.331	915.7	472.78	155.32	847.03	653.37	178.54	703.94	102.45	62.22	822.45	62.056	121.95	867.97	261.49	76.35	788.09	158.94	-38.659	840.46	786.08	242.5	826.76	740.83	-201.54	892.59	1521.8	-1.6319	715.36	1496.3	20.012	832.59	274.22	138.87	823.82	738.45	196.57	824.9	650.99	-173.01	817.84	559.29	-149.15	771.52	1002.8	-296.95	898.87	1183	-25.57	785.95	113.91	30.73	768.05	1011.3	248.65	884.81	662.91	-132.2	941.84	874.02	126.4	765.76	246.98	-115.55	759.95	112.89	106.3	865.53	857.76	-173.14	690.53	28.639	-35.858	844.5	45.099	-25.507	735.37	61.497	-77.261	821.27	28.068	-81.121	753.8	68.194	0.87133	901.57	20.848	-32.888	807.94	339.77	-55.689	789.65	250.37	-48.856
498	2.49	725.43	1488.6	-103.17	708.55	1357.4	-35.76	688.72	1089.4	-35.823	685.46	1259.1	94.867	667.93	904.39	-67.195	660.93	905.99	32.576	892.78	769.93	278.36	748.15	967.4	-232.07	784.72	451.16	-138.51	896.17	1511.5	-78.912	806.63	1120.9	-279.67	735	969.12	169.42	788.64	1152.9	207.07	912.51	812.89	233.3	837.95	1285.3	-26.545	913.08	732.05	-336.35	798.26	885.74	257.26	815.39	883.84	-324.47	858.38	767.65	-340.89	924.17	681.1	155.36	882.03	562.85	161.18	925.45	340.24	78.584	795.73	1293.9	-195.82	781.1	1304.6	120.96	908.54	771.27	-287.1	850.03	172.03	72.078	919.21	41.935	110.21	877.28	70.324	80.665	923.95	473.2	154.16	854.25	653.34	178.1	720.97	97.166	63.187	840.84	60.197	122.55	880.97	260.58	76.195	788.76	158.67	-38.529	844.04	785.25	242.98	831.65	740.26	-201.49	898.61	1521.2	-1.4531	721.33	1496	20.068	845.34	272.63	138.75	830.41	738.23	196.28	829.04	650.42	-172.88	821.26	558.8	-148.93	777.87	1002.3	-297.2	904.29	1182.3	-25.578	802.42	110.73	31.311	772.25	1010.8	248.62	888.73	662.05	-131.66	943.11	874.31	126.45	767.02	246.79	-115.47	776.92	109.24	107.03	874.53	857.26	-173.68	690.43	28.791	-35.813	844.55	44.989	-25.353	735.56	61.527	-77.103	821.31	28.081	-81.078	753.88	68.15	1.0961	901.72	20.85	-32.946	809.74	339.39	-55.627	790.81	250.05	-48.691
499	2.495	731.45	1488.2	-103.12	714.31	1357.1	-35.737	694.03	1089.1	-35.916	691	1258.6	94.817	672.96	904.02	-66.976	666.15	905.48	32.733	896	768.98	279.25	754.46	966.75	-232.45	787.37	450.88	-138.48	902.25	1510.9	-78.732	812.77	1120.4	-279.79	739.45	968.75	169.13	793.83	1152.3	207.09	916.18	811.85	234.32	843.54	1284.6	-26.501	920.7	732.1	-336.05	802.01	885.08	257.45	822.32	883.44	-324.56	865.88	767.46	-340.77	930.98	681.61	154.43	889.82	563.01	160.49	936.25	340.55	78.006	801.46	1293.4	-195.8	786.7	1303.9	120.98	915.88	771.32	-286.84	865.24	170.37	72.344	938.02	42.163	110.38	895.22	69.382	80.935	932.07	473.53	152.99	861.4	653.26	177.67	738.12	92.04	64.141	859.25	58.452	123.09	893.94	259.7	76.051	789.45	158.39	-38.385	847.62	784.36	243.44	836.53	739.66	-201.44	904.63	1520.5	-1.2535	727.29	1495.6	20.141	858.05	271.07	138.62	836.99	737.96	196.03	833.22	649.83	-172.75	824.74	558.3	-148.71	784.23	1001.8	-297.43	909.71	1181.5	-25.582	818.97	107.67	31.877	776.46	1010.3	248.6	892.68	661.17	-131.14	944.26	874.56	126.51	768.34	246.59	-115.38	793.98	105.73	107.74	883.02	856.79	-174.19	690.33	28.95	-35.768	844.6	44.881	-25.193	735.75	61.559	-76.945	821.36	28.101	-81.033	753.96	68.109	1.3214	901.88	20.852	-33.001	811.6	338.98	-55.548	792.01	249.72	-48.516
